# xmcd
#
# Track frame offsets:
#	150
#	9807
#	19243
#	26199
#
# Disc length: 445 seconds
#
# Revision: 1
# Processed by: cddbd v1.5.2PL0 Copyright (c) Steve Scherf et al.
# Submitted via: audiograbber 1.83.01
#
DISCID=2301bb04
DTITLE=B For Brontosaurus - B For Brontosaurus
DYEAR=1900
DGENRE=
TTITLE0=RUT!
TTITLE1=Who Will Sail My Ship Ashore?
TTITLE2=A Million Yrs
TTITLE3=Soda Pop Rock
EXTD=
EXTT0=
EXTT1=
EXTT2=
EXTT3=
PLAYORDER=
